<svg width="512" height="512" xmlns="http://www.w3.org/2000/svg">
 <g>
  <title>background</title>
  <rect fill="none" id="canvas_background" height="514" width="514" y="-1" x="-1"/>
 </g>

 <g>
  <title>Layer 1</title>
  <rect id="svg_7" height="283.560007" width="218.719968" y="110.049998" x="149.069999" fill="#03cfab" stroke="null"/>
  <rect id="svg_2" height="84.559998" width="217.719974" y="110.050004" x="148.069998" fill="#38a3b6" stroke="null"/>
  <path id="svg_11" fill="#3D4A58" d="m383.369,437.50002l55.843,0c10.456,0 18.931,-16.85494 18.931,-37.64523l0,-286.79458c0,-20.7903 -8.476,-37.64523 -18.931,-37.64523l-55.843,0c-10.455,0 -18.931,16.85493 -18.931,37.64523l0,286.79458c0,20.79029 8.476,37.64523 18.931,37.64523z" stroke="null"/>
  <path stroke="null" id="svg_12" opacity="0.15" d="m380.15293,75.771659c-0.227777,2.341185 -0.355086,4.753987 -0.355086,7.228437l0,286.876372c0,20.796217 8.430623,37.655985 18.829652,37.655985l55.544034,0c1.237336,0 2.44385,-0.254613 3.614543,-0.710128c-1.686925,17.33516 -9.312873,30.427518 -18.474566,30.427518l-55.544034,0c-10.399029,0 -18.829652,-16.859738 -18.829652,-37.655955l0,-286.876382c0,-18.323746 6.545766,-33.574303 15.215109,-36.945847z"/>
  <path id="svg_9" fill="#3D4A58" d="m132.631,442.49998l-55.843,0c-10.455,0 -18.931,-16.94804 -18.931,-37.85316l0,-288.37865c0,-20.90512 8.476,-37.85316 18.931,-37.85316l55.843,0c10.455,0 18.931,16.94804 18.931,37.85316l0,288.37865c0,20.90512 -8.476,37.85316 -18.931,37.85316z" stroke="null"/>
  <path stroke="null" id="svg_10" opacity="0.15" d="m136.096967,78.77193c0.22778,2.354145 0.355097,4.780307 0.355097,7.268457l0,288.463551c0,20.911256 -8.430619,37.864284 -18.82963,37.864284l-55.543944,0c-1.237341,0 -2.443844,-0.256003 -3.614538,-0.714038c1.686915,17.431059 9.312853,30.595847 18.474533,30.595847l55.543944,0c10.399011,0 18.82962,-16.953028 18.82962,-37.864284l0,-288.463541c0,-18.425116 -6.545756,-33.760062 -15.215082,-37.150276z"/>
  <rect stroke="null" id="svg_1" height="73.56" width="212.969921" y="320.049994" x="151.570038" fill="#04a386"/>
  <circle id="svg_64" fill="#d8d25d" r="24.075996" cy="150.96" cx="197.499995" stroke="null"/>
  <circle id="svg_5" fill="#d8d25d" r="24.075996" cy="151.96" cx="314.499995" stroke="null"/>
 </g>
</svg>