<svg width="512" height="512" xmlns="http://www.w3.org/2000/svg">
 <g>
  <title>background</title>
  <rect x="-1" y="-1" width="514" height="514" id="canvas_background" fill="none"/>
 </g>

 <g>
  <title>Layer 1</title>
  <rect fill="#03cfab" x="90.069999" y="244.049993" width="218.719968" height="112.56" id="svg_7" stroke="null" transform="rotate(-5.234438419342041 199.42999267578284,300.3299865722657) "/>
  <rect stroke="null" fill="#38a3b6" x="36.069998" y="271.050004" width="217.719974" height="84.559998" id="svg_2" transform="rotate(-26.621322631835938 144.92999267578128,313.3300170898437) "/>
  <path stroke="null" d="m273.369,591.50002l55.843,0c10.456,0 18.931,-16.85494 18.931,-37.64523l0,-286.79458c0,-20.7903 -8.476,-37.64523 -18.931,-37.64523l-55.843,0c-10.455,0 -18.931,16.85493 -18.931,37.64523l0,286.79458c0,20.79029 8.476,37.64523 18.931,37.64523z" fill="#3D4A58" id="svg_11" transform="rotate(88.46517944335938 301.2904968261719,410.4574890136718) "/>
  <path stroke="null" d="m273.131432,232.843146c-0.226554,2.312051 -0.353179,4.694841 -0.353179,7.138504l0,283.307056c0,20.537474 8.385255,37.187465 18.728315,37.187465l55.245081,0c1.23068,0 2.430697,-0.251442 3.595086,-0.701295c-1.677841,17.119476 -9.262746,30.048941 -18.375126,30.048941l-55.245091,0c-10.34306,0 -18.728305,-16.649971 -18.728305,-37.187435l0,-283.307066c0,-18.095766 6.510539,-33.156579 15.133219,-36.48617z" opacity="0.15" id="svg_12" transform="rotate(88.097900390625 304.1724853515625,411.3334655761719) "/>
  <path stroke="null" d="m226.631,520.49998l-55.843,0c-10.455,0 -18.931,-16.94804 -18.931,-37.85316l0,-288.37865c0,-20.90512 8.476,-37.85316 18.931,-37.85316l55.843,0c10.455,0 18.931,16.94804 18.931,37.85316l0,288.37865c0,20.90512 -8.476,37.85316 -18.931,37.85316z" fill="#3D4A58" id="svg_9" transform="rotate(49.987579345703125 198.7095031738282,338.4574890136719) "/>
  <path stroke="null" d="m229.859908,156.322587c0.227927,2.353762 0.355319,4.779521 0.355319,7.267261l0,288.415952c0,20.9078 -8.436067,37.858032 -18.841796,37.858032l-55.579828,0c-1.238139,0 -2.445419,-0.255958 -3.616875,-0.713922c1.68801,17.428184 9.318867,30.590802 18.486467,30.590802l55.579838,0c10.405729,0 18.841786,-16.950233 18.841786,-37.858032l0,-288.415942c0,-18.42208 -6.549989,-33.754499 -15.224911,-37.14415z" opacity="0.15" id="svg_10" transform="rotate(49.86731719970703 198.6307678222655,338.0316467285157) "/>
  <rect fill="#04a386" x="234.570038" y="292.049994" width="212.969921" height="73.56" id="svg_1" stroke="null" transform="rotate(3.126844644546509 341.05499267577943,328.8299865722656) "/>
  <circle stroke="null" cx="387.499995" cy="271.96" r="24.075996" fill="#d8d25d" id="svg_64"/>
  <circle stroke="null" cx="217.499995" cy="448.96" r="24.075996" fill="#d8d25d" id="svg_5"/>
 </g>
</svg>